<?xml version="1.0" encoding="utf-8"?>
<!-- Generator: Adobe Illustrator 21.1.0, SVG Export Plug-In . SVG Version: 6.00 Build 0)  -->
<svg version="1.1" id="Layer_1" xmlns="http://www.w3.org/2000/svg" xmlns:xlink="http://www.w3.org/1999/xlink" x="0px" y="0px"
	 viewBox="0 0 405.3 405.3" style="enable-background:new 0 0 405.3 405.3;" xml:space="preserve">
<style type="text/css">
	.st0{fill:#F26341;}
	.st1{fill:#FFFFFF;}
</style>
<g>
	<path class="st0" d="M402.3,202c0-109.6-88.9-198.5-198.5-198.5C94.2,3.5,5.3,92.4,5.3,202c0,109.6,88.9,198.5,198.5,198.5
		C313.4,400.4,402.3,311.6,402.3,202L402.3,202z M402.3,202"/>
	<path class="st1" d="M227,202l58-67.4c6.3-7.3,5.5-18.4-1.8-24.8c-7.3-6.3-18.4-5.5-24.8,1.8l-54.6,63.4l-54.6-63.4
		c-6.3-7.4-17.4-8.2-24.8-1.8c-7.3,6.3-8.2,17.4-1.8,24.8l58,67.4l-58,67.4c-6.3,7.3-5.5,18.4,1.8,24.8c3.3,2.9,7.4,4.3,11.5,4.3
		c4.9,0,9.8-2.1,13.3-6.1l54.6-63.4l54.6,63.4c3.5,4,8.4,6.1,13.3,6.1c4.1,0,8.1-1.4,11.5-4.3c7.3-6.3,8.2-17.4,1.8-24.8L227,202z
		 M227,202"/>
</g>
</svg>
